{"title":"Vanishing.On.7th.Street.2010.R5.AC3.XViD-T0XiCiNK","uid":6244883,"size":1530629950,"categoryP":"video","categoryS":"movies","magnet":"?xt=urn:btih:11fa3aa911c5496772f7cec0bb6e63ecde96fe35&amp;dn=Vanishing.On.7th.Street.2010.R5.AC3.XViD-T0XiCiNK&amp;tr=udp%3A%2F%2Ftracker.openbittorrent.com%3A80&amp;tr=udp%3A%2F%2Fopen.demonii.com%3A1337&amp;tr=udp%3A%2F%2Ftracker.coppersurfer.tk%3A6969&amp;tr=udp%3A%2F%2Fexodus.desync.com%3A6969","seeders":0,"leechers":0,"uploader":"SAFCukO09","files":4,"time":1300203213,"description":"[center][img]http://www.leetleech.org/images/68619896657063018115.jpg[/img]\n\n:::::::::::::Enjoy:Another:Release:From:T0XiCiNK::::::::::::::\n\nFile::Vanishing.On.7th.Street.2010.R5.AC3.XViD-T0XiCiNK\n\nVideo Source:: ELEKTRI4KA\nAudio Source:: PPV (DiNKY)\nLanguage::English\nIMDB::http://www.imdb.com/title/tt1452628/\n\nWhen a massive power outage plunges the city of Detroit into total darkness,\na disparate group of individuals find themselves alone. The entire city's population\nhas vanished into thin air, leaving behind heaps of empty clothing, abandoned cars\nand lengthening shadows. Soon the daylight begins to disappear completely, and as\nthe survivors gather in an abandoned tavern, they realize the darkness is out to\nget them, and only their rapidly diminishing light sources can keep them safe.\n\nSpecs::\n\nGeneral\n\n\nFormat                           : AVI\nFormat/Info                      : Audio Video Interleave\nFile size                        : 1.41 GiB\nDuration                         : 1h 27mn\nOverall bit rate                 : 2 300 Kbps\nWriting application              : VirtualDubMod 1.5.10.2 (build 2540/release)\nWriting library                  : VirtualDubMod build 2540/release\n\nVideo\nID                               : 0\nFormat                           : MPEG-4 Visual\nFormat profile                   : Advanced Simple@L5\nFormat settings, BVOP            : 2\nFormat settings, QPel            : No\nFormat settings, GMC             : No warppoints\nFormat settings, Matrix          : Custom\nCodec ID                         : XVID\nCodec ID/Hint                    : XviD\nDuration                         : 1h 27mn\nBit rate                         : 1 842 Kbps\nWidth                            : 720 pixels\nHeight                           : 304 pixels\nDisplay aspect ratio             : 2.35:1\nFrame rate                       : 25.000 fps\nColor space                      : YUV\nChroma subsampling               : 4:2:0\nBit depth                        : 8 bits\nScan type                        : Progressive\nCompression mode                 : Lossy\nBits/(Pixel*Frame)               : 0.337\nStream size                      : 1.13 GiB (80%)\nWriting library                  : XviD 58\n\nAudio\nID                               : 1\nFormat                           : AC-3\nFormat/Info                      : Audio Coding 3\nMode extension                   : CM (complete main)\nCodec ID                         : 2000\nDuration                         : 1h 27mn\nBit rate mode                    : Constant\nBit rate                         : 448 Kbps\nChannel(s)                       : 6 channels\nChannel positions                : Front: L C R, Side: L R, LFE\nSampling rate                    : 48.0 KHz\nBit depth                        : 16 bits\nCompression mode                 : Lossy\nStream size                      : 281 MiB (19%)\nAlignment                        : Split accross interleaves\nInterleave, duration             : 40 ms (1.00 video frame)\nInterleave, preload duration     : 500 ms\n\n\n\nNOTES:: Presenting first r5 of Vanishing On 7th Street, using audio from PPV (Studio) along with\nstudio russian surrounds. Enjoy.\n\n\n::Why Complain? Whats Free Is Free::\n\n::We are always looking for friends with unreleased DVD's, Screeners, R5's, Audio, Cams, Silvers,\n...and any other good sources you may have to offer -\n..contact us: &lt;a class=&quot;__cf_email__&quot; href=&quot;/cdn-cgi/l/email-protection&quot; data-cfemail=&quot;a8dc98d0c1cbdacdc4cdc9dbcddbe8c0dddbc0c5c9c1c486cbc7c5&quot;&gt;[email&amp;#160;protected]&lt;/a&gt;&lt;script cf-hash='f9e31' type=&quot;text/javascript&quot;&gt;\n/* &lt;![CDATA[ */!function(){try{var t=&quot;currentScript&quot;in document?document.currentScript:function(){for(var t=document.getElementsByTagName(&quot;script&quot;),e=t.length;e--;)if(t[e].getAttribute(&quot;cf-hash&quot;))return t[e]}();if(t&amp;&amp;t.previousSibling){var e,r,n,i,c=t.previousSibling,a=c.getAttribute(&quot;data-cfemail&quot;);if(a){for(e=&quot;&quot;,r=parseInt(a.substr(0,2),16),n=2;a.length-n;n+=2)i=parseInt(a.substr(n,2),16)^r,e+=String.fromCharCode(i);e=document.createTextNode(e),c.parentNode.replaceChild(e,c)}}}catch(u){}}();/* ]]&gt; */&lt;/script&gt; or &lt;a class=&quot;__cf_email__&quot; href=&quot;/cdn-cgi/l/email-protection&quot; data-cfemail=&quot;e88c818f819c8984c6818683a884819e8dc68b8785&quot;&gt;[email&amp;#160;protected]&lt;/a&gt;&lt;script cf-hash='f9e31' type=&quot;text/javascript&quot;&gt;\n/* &lt;![CDATA[ */!function(){try{var t=&quot;currentScript&quot;in document?document.currentScript:function(){for(var t=document.getElementsByTagName(&quot;script&quot;),e=t.length;e--;)if(t[e].getAttribute(&quot;cf-hash&quot;))return t[e]}();if(t&amp;&amp;t.previousSibling){var e,r,n,i,c=t.previousSibling,a=c.getAttribute(&quot;data-cfemail&quot;);if(a){for(e=&quot;&quot;,r=parseInt(a.substr(0,2),16),n=2;a.length-n;n+=2)i=parseInt(a.substr(n,2),16)^r,e+=String.fromCharCode(i);e=document.createTextNode(e),c.parentNode.replaceChild(e,c)}}}catch(u){}}();/* ]]&gt; */&lt;/script&gt;\n\n::::::::::::::::::::::::::::::::::::   Respect To   :::::::::::::::::::::::::::::::::::::\n::IMAGiNE,FLAWL3SS,Hive-CM8,Tranz,Vik,OneTwo,Joey,bob,Unevano,SANTi &amp; our friends on utn and PA::\n                      &quot;and to all of you who support us, Thank-You&quot;\n[/center]","torrent":{"xt":"urn:btih:11fa3aa911c5496772f7cec0bb6e63ecde96fe35","amp;dn":"Vanishing.On.7th.Street.2010.R5.AC3.XViD-T0XiCiNK","amp;tr":["udp%3A%2F%2Ftracker.openbittorrent.com%3A80","udp%3A%2F%2Fopen.demonii.com%3A1337","udp%3A%2F%2Ftracker.coppersurfer.tk%3A6969","udp%3A%2F%2Fexodus.desync.com%3A6969"],"infoHash":"11fa3aa911c5496772f7cec0bb6e63ecde96fe35","infoHashBuffer":{"type":"Buffer","data":[17,250,58,169,17,197,73,103,114,247,206,192,187,110,99,236,222,150,254,53]},"announce":[],"urlList":[]}}